<svg xmlns="http://www.w3.org/2000/svg" width="480" height="320" viewBox="0 0 480 320" font-family="IBM Plex Sans">
<rect x="0.00" y="0.00" width="480.00" height="320.00" fill="#ffffff" fill-opacity="1.00"/>
<text x="31.1" y="53.7" font-size="22.6" font-weight="600" text-anchor="start" fill="#1f2430">Golden</text>
<text x="52.7" y="250.4" font-size="14.0" font-weight="400" text-anchor="end" fill="#5b6170">0</text>
<text x="52.7" y="196.0" font-size="14.0" font-weight="400" text-anchor="end" fill="#5b6170">20</text>
<text x="52.7" y="141.6" font-size="14.0" font-weight="400" text-anchor="end" fill="#5b6170">40</text>
<line x1="59.7" y1="245.5" x2="59.7" y2="250.4" stroke="#5b6170" stroke-width="1.33"/>
<text x="59.7" y="264.4" font-size="14.0" font-weight="400" text-anchor="middle" fill="#5b6170">0</text>
<line x1="182.7" y1="245.5" x2="182.7" y2="250.4" stroke="#5b6170" stroke-width="1.33"/>
<text x="182.7" y="264.4" font-size="14.0" font-weight="400" text-anchor="middle" fill="#5b6170">100</text>
<line x1="305.7" y1="245.5" x2="305.7" y2="250.4" stroke="#5b6170" stroke-width="1.33"/>
<text x="305.7" y="264.4" font-size="14.0" font-weight="400" text-anchor="middle" fill="#5b6170">200</text>
<line x1="59.7" y1="245.5" x2="427.5" y2="245.5" stroke="#5b6170" stroke-width="1.33"/>
<text x="31.1" y="87.3" font-size="14.0" font-weight="600" text-anchor="start" fill="#1f2430">a, b</text>
<text x="243.6" y="286.1" font-size="14.0" font-weight="600" text-anchor="middle" fill="#1f2430">t</text>
<polyline points="59.7,245.5 60.9,235.2 62.1,224.8 63.4,242.0 64.6,231.6 65.8,221.3 67.1,238.4 68.3,228.1 69.5,217.8 70.7,234.9 72.0,224.6 73.2,241.7 74.4,231.4 75.7,221.0 76.9,238.1 78.1,227.8 79.4,217.5 80.6,234.6 81.8,224.3 83.0,213.9 84.3,231.1 85.5,220.7 86.7,237.9 88.0,227.5 89.2,217.2 90.4,234.3 91.7,224.0 92.9,213.7 94.1,230.8 95.3,220.5 96.6,210.1 97.8,227.3 99.0,216.9 100.3,234.1 101.5,223.7 102.7,213.4 104.0,230.5 105.2,220.2 106.4,209.9 107.6,227.0 108.9,216.7 110.1,233.8 111.3,223.5 112.6,213.1 113.8,230.3 115.0,219.9 116.3,209.6 117.5,226.7 118.7,216.4 119.9,206.1 121.2,223.2 122.4,212.9 123.6,230.0 124.9,219.7 126.1,209.3 127.3,226.5 128.6,216.1 129.8,205.8 131.0,222.9 132.2,212.6 133.5,202.3 134.7,219.4 135.9,209.1 137.2,226.2 138.4,215.9 139.6,205.5 140.9,222.7 142.1,212.3 143.3,202.0 144.5,219.1 145.8,208.8 147.0,225.9 148.2,215.6 149.5,205.2 150.7,222.4 151.9,212.0 153.2,201.7 154.4,218.8 155.6,208.5 156.8,198.2 158.1,215.3 159.3,205.0 160.5,222.1 161.8,211.8 163.0,201.4 164.2,218.6 165.5,208.2 166.7,197.9 167.9,215.0 169.1,204.7 170.4,194.4 171.6,211.5 172.8,201.2 174.1,218.3 175.3,208.0 176.5,197.6 177.8,214.8 179.0,204.4 180.2,194.1 181.5,211.2 182.7,200.9 183.9,218.0 185.1,207.7 186.4,197.4 187.6,214.5 188.8,204.2 190.1,193.8 191.3,211.0 192.5,200.6 193.8,190.3 195.0,207.4 196.2,197.1 197.4,214.2 198.7,203.9 199.9,193.6 201.1,210.7 202.4,200.4 203.6,190.0 204.8,207.2 206.1,196.8 207.3,186.5 208.5,203.6 209.7,193.3 211.0,210.4 212.2,200.1 213.4,189.8 214.7,206.9 215.9,196.5 217.1,186.2 218.4,203.3 219.6,193.0 220.8,182.7 222.0,199.8 223.3,189.5 224.5,206.6 225.7,196.3 227.0,185.9 228.2,203.1 229.4,192.7 230.7,182.4 231.9,199.5 233.1,189.2 234.3,206.3 235.6,196.0 236.8,185.7 238.0,202.8 239.3,192.5 240.5,182.1 241.7,199.3 243.0,188.9 244.2,178.6 245.4,195.7 246.6,185.4 247.9,202.5 249.1,192.2 250.3,181.9 251.6,199.0 252.8,188.7 254.0,178.3 255.3,195.5 256.5,185.1 257.7,174.8 258.9,191.9 260.2,181.6 261.4,198.7 262.6,188.4 263.9,178.1 265.1,195.2 266.3,184.9 267.6,174.5 268.8,191.7 270.0,181.3 271.2,198.5 272.5,188.1 273.7,177.8 274.9,194.9 276.2,184.6 277.4,174.3 278.6,191.4 279.9,181.1 281.1,170.7 282.3,187.8 283.5,177.5 284.8,194.6 286.0,184.3 287.2,174.0 288.5,191.1 289.7,180.8 290.9,170.4 292.2,187.6 293.4,177.2 294.6,166.9 295.8,184.0 297.1,173.7 298.3,190.8 299.5,180.5 300.8,170.2 302.0,187.3 303.2,177.0 304.5,166.6 305.7,183.8 306.9,173.4 308.1,190.6 309.4,180.2 310.6,169.9 311.8,187.0 313.1,176.7 314.3,166.4 315.5,183.5 316.8,173.2 318.0,162.8 319.2,180.0 320.5,169.6 321.7,186.8 322.9,176.4 324.1,166.1 325.4,183.2 326.6,172.9 327.8,162.6 329.1,179.7 330.3,169.4 331.5,159.0 332.8,176.2 334.0,165.8 335.2,183.0 336.4,172.6 337.7,162.3 338.9,179.4 340.1,169.1 341.4,158.8 342.6,175.9 343.8,165.6 345.1,155.2 346.3,172.4 347.5,162.0 348.7,179.1 350.0,168.8 351.2,158.5 352.4,175.6 353.7,165.3 354.9,154.9 356.1,172.1 357.4,161.7 358.6,178.9 359.8,168.5 361.0,158.2 362.3,175.3 363.5,165.0 364.7,154.7 366.0,171.8 367.2,161.5 368.4,151.1 369.7,168.3 370.9,157.9 372.1,175.1 373.3,164.7 374.6,154.4 375.8,171.5 377.0,161.2 378.3,150.9 379.5,168.0 380.7,157.7 382.0,147.3 383.2,164.5 384.4,154.1 385.6,171.3 386.9,160.9 388.1,150.6 389.3,167.7 390.6,157.4 391.8,147.1 393.0,164.2 394.3,153.9 395.5,171.0 396.7,160.7 397.9,150.3 399.2,167.5 400.4,157.1 401.6,146.8 402.9,163.9 404.1,153.6 405.3,143.3 406.6,160.4 407.8,150.1 409.0,167.2 410.2,156.9 411.5,146.5 412.7,163.6 413.9,153.3 415.2,143.0 416.4,160.1 417.6,149.8 418.9,139.5 420.1,156.6 421.3,146.2 422.5,163.4 423.8,153.0 425.0,142.7 426.2,159.8 427.5,149.5" fill="none" stroke="#2a78d6" stroke-width="3.33" stroke-linejoin="round" stroke-linecap="round"/>
<polyline points="59.7,245.5 60.9,242.8 62.1,234.6 63.4,221.0 64.6,202.0 65.8,177.5 67.1,147.6 68.3,112.3 69.5,215.6 70.7,169.4 72.0,117.7 73.2,204.7 74.4,142.2 75.7,218.3 76.9,144.9 78.1,210.1 79.4,125.9 80.6,180.2 81.8,229.2 83.0,128.6 84.3,166.6 85.5,199.3 86.7,226.5 88.0,104.1 89.2,120.4 90.4,131.3 91.7,136.7 92.9,136.7 94.1,131.3 95.3,120.4 96.6,104.1 97.8,226.5 99.0,199.3 100.3,166.6 101.5,128.6 102.7,229.2 104.0,180.2 105.2,125.9 106.4,210.1 107.6,144.9 108.9,218.3 110.1,142.2 111.3,204.7 112.6,117.7 113.8,169.4 115.0,215.6 116.3,112.3 117.5,147.6 118.7,177.5 119.9,202.0 121.2,221.0 122.4,234.6 123.6,242.8 124.9,245.5 126.1,242.8 127.3,234.6 128.6,221.0 129.8,202.0 131.0,177.5 132.2,147.6 133.5,112.3 134.7,215.6 135.9,169.4 137.2,117.7 138.4,204.7 139.6,142.2 140.9,218.3 142.1,144.9 143.3,210.1 144.5,125.9 145.8,180.2 147.0,229.2 148.2,128.6 149.5,166.6 150.7,199.3 151.9,226.5 153.2,104.1 154.4,120.4 155.6,131.3 156.8,136.7 158.1,136.7 159.3,131.3 160.5,120.4 161.8,104.1 163.0,226.5 164.2,199.3 165.5,166.6 166.7,128.6 167.9,229.2 169.1,180.2 170.4,125.9 171.6,210.1 172.8,144.9 174.1,218.3 175.3,142.2 176.5,204.7 177.8,117.7 179.0,169.4 180.2,215.6 181.5,112.3 182.7,147.6 183.9,177.5 185.1,202.0 186.4,221.0 187.6,234.6 188.8,242.8 190.1,245.5 191.3,242.8 192.5,234.6 193.8,221.0 195.0,202.0 196.2,177.5 197.4,147.6 198.7,112.3 199.9,215.6 201.1,169.4 202.4,117.7 203.6,204.7 204.8,142.2 206.1,218.3 207.3,144.9 208.5,210.1 209.7,125.9 211.0,180.2 212.2,229.2 213.4,128.6 214.7,166.6 215.9,199.3 217.1,226.5 218.4,104.1 219.6,120.4 220.8,131.3 222.0,136.7 223.3,136.7 224.5,131.3 225.7,120.4 227.0,104.1 228.2,226.5 229.4,199.3 230.7,166.6 231.9,128.6 233.1,229.2 234.3,180.2 235.6,125.9 236.8,210.1 238.0,144.9 239.3,218.3 240.5,142.2 241.7,204.7 243.0,117.7 244.2,169.4 245.4,215.6 246.6,112.3 247.9,147.6 249.1,177.5 250.3,202.0 251.6,221.0 252.8,234.6 254.0,242.8 255.3,245.5 256.5,242.8 257.7,234.6 258.9,221.0 260.2,202.0 261.4,177.5 262.6,147.6 263.9,112.3 265.1,215.6 266.3,169.4 267.6,117.7 268.8,204.7 270.0,142.2 271.2,218.3 272.5,144.9 273.7,210.1 274.9,125.9 276.2,180.2 277.4,229.2 278.6,128.6 279.9,166.6 281.1,199.3 282.3,226.5 283.5,104.1 284.8,120.4 286.0,131.3 287.2,136.7 288.5,136.7 289.7,131.3 290.9,120.4 292.2,104.1 293.4,226.5 294.6,199.3 295.8,166.6 297.1,128.6 298.3,229.2 299.5,180.2 300.8,125.9 302.0,210.1 303.2,144.9 304.5,218.3 305.7,142.2 306.9,204.7 308.1,117.7 309.4,169.4 310.6,215.6 311.8,112.3 313.1,147.6 314.3,177.5 315.5,202.0 316.8,221.0 318.0,234.6 319.2,242.8 320.5,245.5 321.7,242.8 322.9,234.6 324.1,221.0 325.4,202.0 326.6,177.5 327.8,147.6 329.1,112.3 330.3,215.6 331.5,169.4 332.8,117.7 334.0,204.7 335.2,142.2 336.4,218.3 337.7,144.9 338.9,210.1 340.1,125.9 341.4,180.2 342.6,229.2 343.8,128.6 345.1,166.6 346.3,199.3 347.5,226.5 348.7,104.1 350.0,120.4 351.2,131.3 352.4,136.7 353.7,136.7 354.9,131.3 356.1,120.4 357.4,104.1 358.6,226.5 359.8,199.3 361.0,166.6 362.3,128.6 363.5,229.2 364.7,180.2 366.0,125.9 367.2,210.1 368.4,144.9 369.7,218.3 370.9,142.2 372.1,204.7 373.3,117.7 374.6,169.4 375.8,215.6 377.0,112.3 378.3,147.6 379.5,177.5 380.7,202.0 382.0,221.0 383.2,234.6 384.4,242.8 385.6,245.5 386.9,242.8 388.1,234.6 389.3,221.0 390.6,202.0 391.8,177.5 393.0,147.6 394.3,112.3 395.5,215.6 396.7,169.4 397.9,117.7 399.2,204.7 400.4,142.2 401.6,218.3 402.9,144.9 404.1,210.1 405.3,125.9 406.6,180.2 407.8,229.2 409.0,128.6 410.2,166.6 411.5,199.3 412.7,226.5 413.9,104.1 415.2,120.4 416.4,131.3 417.6,136.7 418.9,136.7 420.1,131.3 421.3,120.4 422.5,104.1 423.8,226.5 425.0,199.3 426.2,166.6 427.5,128.6" fill="none" stroke="#eb6834" stroke-width="3.33" stroke-linejoin="round" stroke-linecap="round"/>
<text x="434.5" y="133.5" font-size="14.0" font-weight="600" text-anchor="start" fill="#eb6834">b</text>
<text x="434.5" y="154.4" font-size="14.0" font-weight="600" text-anchor="start" fill="#2a78d6">a</text>
</svg>
