<svg xmlns="http://www.w3.org/2000/svg" width="480" height="320" viewBox="0 0 480 320" font-family="IBM Plex Sans">
<rect x="0.00" y="0.00" width="480.00" height="320.00" fill="#ffffff" fill-opacity="1.00"/>
<text x="31.1" y="53.7" font-size="22.6" font-weight="600" text-anchor="start" fill="#1f2430">Golden</text>
<text x="52.7" y="250.4" font-size="14.0" font-weight="400" text-anchor="end" fill="#5b6170">0</text>
<text x="52.7" y="203.3" font-size="14.0" font-weight="400" text-anchor="end" fill="#5b6170">20</text>
<text x="52.7" y="156.1" font-size="14.0" font-weight="400" text-anchor="end" fill="#5b6170">40</text>
<text x="52.7" y="109.0" font-size="14.0" font-weight="400" text-anchor="end" fill="#5b6170">60</text>
<line x1="59.7" y1="245.5" x2="59.7" y2="250.4" stroke="#5b6170" stroke-width="1.33"/>
<text x="59.7" y="264.4" font-size="14.0" font-weight="400" text-anchor="middle" fill="#5b6170">0</text>
<line x1="159.5" y1="245.5" x2="159.5" y2="250.4" stroke="#5b6170" stroke-width="1.33"/>
<text x="159.5" y="264.4" font-size="14.0" font-weight="400" text-anchor="middle" fill="#5b6170">10</text>
<line x1="259.3" y1="245.5" x2="259.3" y2="250.4" stroke="#5b6170" stroke-width="1.33"/>
<text x="259.3" y="264.4" font-size="14.0" font-weight="400" text-anchor="middle" fill="#5b6170">20</text>
<line x1="359.1" y1="245.5" x2="359.1" y2="250.4" stroke="#5b6170" stroke-width="1.33"/>
<text x="359.1" y="264.4" font-size="14.0" font-weight="400" text-anchor="middle" fill="#5b6170">30</text>
<line x1="59.7" y1="245.5" x2="448.9" y2="245.5" stroke="#5b6170" stroke-width="1.33"/>
<text x="31.1" y="87.3" font-size="14.0" font-weight="600" text-anchor="start" fill="#1f2430">b</text>
<text x="254.3" y="286.1" font-size="14.0" font-weight="600" text-anchor="middle" fill="#1f2430">a</text>
<circle cx="59.7" cy="245.5" r="5.33" fill="#2a78d6"/>
<circle cx="73.6" cy="210.1" r="5.33" fill="#2a78d6"/>
<circle cx="86.6" cy="158.3" r="5.33" fill="#2a78d6"/>
<circle cx="100.6" cy="146.5" r="5.33" fill="#2a78d6"/>
<circle cx="110.6" cy="207.8" r="5.33" fill="#2a78d6"/>
<circle cx="113.6" cy="146.5" r="5.33" fill="#2a78d6"/>
<circle cx="123.5" cy="130.0" r="5.33" fill="#2a78d6"/>
<circle cx="127.5" cy="158.3" r="5.33" fill="#2a78d6"/>
<circle cx="130.5" cy="134.7" r="5.33" fill="#2a78d6"/>
<circle cx="137.5" cy="231.4" r="5.33" fill="#2a78d6"/>
<circle cx="140.5" cy="210.1" r="5.33" fill="#2a78d6"/>
<circle cx="144.5" cy="205.4" r="5.33" fill="#2a78d6"/>
<circle cx="150.5" cy="205.4" r="5.33" fill="#2a78d6"/>
<circle cx="154.5" cy="245.5" r="5.33" fill="#2a78d6"/>
<circle cx="157.5" cy="137.1" r="5.33" fill="#2a78d6"/>
<circle cx="164.5" cy="205.4" r="5.33" fill="#2a78d6"/>
<circle cx="167.5" cy="224.3" r="5.33" fill="#2a78d6"/>
<circle cx="171.4" cy="231.4" r="5.33" fill="#2a78d6"/>
<circle cx="174.4" cy="160.7" r="5.33" fill="#2a78d6"/>
<circle cx="177.4" cy="231.4" r="5.33" fill="#2a78d6"/>
<circle cx="181.4" cy="158.3" r="5.33" fill="#2a78d6"/>
<circle cx="184.4" cy="214.9" r="5.33" fill="#2a78d6"/>
<circle cx="188.4" cy="188.9" r="5.33" fill="#2a78d6"/>
<circle cx="191.4" cy="130.0" r="5.33" fill="#2a78d6"/>
<circle cx="194.4" cy="188.9" r="5.33" fill="#2a78d6"/>
<circle cx="198.4" cy="207.8" r="5.33" fill="#2a78d6"/>
<circle cx="201.4" cy="177.2" r="5.33" fill="#2a78d6"/>
<circle cx="204.4" cy="207.8" r="5.33" fill="#2a78d6"/>
<circle cx="208.4" cy="146.5" r="5.33" fill="#2a78d6"/>
<circle cx="211.4" cy="243.1" r="5.33" fill="#2a78d6"/>
<circle cx="215.4" cy="229.0" r="5.33" fill="#2a78d6"/>
<circle cx="218.4" cy="130.0" r="5.33" fill="#2a78d6"/>
<circle cx="221.3" cy="229.0" r="5.33" fill="#2a78d6"/>
<circle cx="225.3" cy="134.7" r="5.33" fill="#2a78d6"/>
<circle cx="228.3" cy="144.2" r="5.33" fill="#2a78d6"/>
<circle cx="232.3" cy="221.9" r="5.33" fill="#2a78d6"/>
<circle cx="235.3" cy="210.1" r="5.33" fill="#2a78d6"/>
<circle cx="238.3" cy="221.9" r="5.33" fill="#2a78d6"/>
<circle cx="242.3" cy="219.6" r="5.33" fill="#2a78d6"/>
<circle cx="245.3" cy="141.8" r="5.33" fill="#2a78d6"/>
<circle cx="248.3" cy="219.6" r="5.33" fill="#2a78d6"/>
<circle cx="252.3" cy="137.1" r="5.33" fill="#2a78d6"/>
<circle cx="255.3" cy="186.6" r="5.33" fill="#2a78d6"/>
<circle cx="259.3" cy="151.2" r="5.33" fill="#2a78d6"/>
<circle cx="262.3" cy="224.3" r="5.33" fill="#2a78d6"/>
<circle cx="265.3" cy="151.2" r="5.33" fill="#2a78d6"/>
<circle cx="269.2" cy="160.7" r="5.33" fill="#2a78d6"/>
<circle cx="272.2" cy="123.0" r="5.33" fill="#2a78d6"/>
<circle cx="279.2" cy="214.9" r="5.33" fill="#2a78d6"/>
<circle cx="282.2" cy="179.5" r="5.33" fill="#2a78d6"/>
<circle cx="286.2" cy="155.9" r="5.33" fill="#2a78d6"/>
<circle cx="289.2" cy="155.9" r="5.33" fill="#2a78d6"/>
<circle cx="292.2" cy="155.9" r="5.33" fill="#2a78d6"/>
<circle cx="296.2" cy="177.2" r="5.33" fill="#2a78d6"/>
<circle cx="299.2" cy="179.5" r="5.33" fill="#2a78d6"/>
<circle cx="303.2" cy="123.0" r="5.33" fill="#2a78d6"/>
<circle cx="306.2" cy="243.1" r="5.33" fill="#2a78d6"/>
<circle cx="309.2" cy="123.0" r="5.33" fill="#2a78d6"/>
<circle cx="313.2" cy="236.1" r="5.33" fill="#2a78d6"/>
<circle cx="316.2" cy="151.2" r="5.33" fill="#2a78d6"/>
<circle cx="319.1" cy="236.1" r="5.33" fill="#2a78d6"/>
<circle cx="323.1" cy="144.2" r="5.33" fill="#2a78d6"/>
<circle cx="326.1" cy="186.6" r="5.33" fill="#2a78d6"/>
<circle cx="330.1" cy="141.8" r="5.33" fill="#2a78d6"/>
<circle cx="333.1" cy="219.6" r="5.33" fill="#2a78d6"/>
<circle cx="336.1" cy="141.8" r="5.33" fill="#2a78d6"/>
<circle cx="340.1" cy="141.8" r="5.33" fill="#2a78d6"/>
<circle cx="343.1" cy="221.9" r="5.33" fill="#2a78d6"/>
<circle cx="347.1" cy="144.2" r="5.33" fill="#2a78d6"/>
<circle cx="350.1" cy="186.6" r="5.33" fill="#2a78d6"/>
<circle cx="353.1" cy="144.2" r="5.33" fill="#2a78d6"/>
<circle cx="357.1" cy="236.1" r="5.33" fill="#2a78d6"/>
<circle cx="360.1" cy="229.0" r="5.33" fill="#2a78d6"/>
<circle cx="363.1" cy="236.1" r="5.33" fill="#2a78d6"/>
<circle cx="367.1" cy="123.0" r="5.33" fill="#2a78d6"/>
<circle cx="370.0" cy="243.1" r="5.33" fill="#2a78d6"/>
<circle cx="374.0" cy="177.2" r="5.33" fill="#2a78d6"/>
<circle cx="377.0" cy="179.5" r="5.33" fill="#2a78d6"/>
<circle cx="380.0" cy="177.2" r="5.33" fill="#2a78d6"/>
<circle cx="384.0" cy="155.9" r="5.33" fill="#2a78d6"/>
<circle cx="394.0" cy="179.5" r="5.33" fill="#2a78d6"/>
<circle cx="397.0" cy="214.9" r="5.33" fill="#2a78d6"/>
<circle cx="407.0" cy="160.7" r="5.33" fill="#2a78d6"/>
<circle cx="411.0" cy="151.2" r="5.33" fill="#2a78d6"/>
<circle cx="420.9" cy="186.6" r="5.33" fill="#2a78d6"/>
<circle cx="423.9" cy="137.1" r="5.33" fill="#2a78d6"/>
<circle cx="87.6" cy="229.0" r="5.33" fill="#eb6834"/>
<circle cx="97.6" cy="243.1" r="5.33" fill="#eb6834"/>
<circle cx="101.6" cy="177.2" r="5.33" fill="#eb6834"/>
<circle cx="111.6" cy="155.9" r="5.33" fill="#eb6834"/>
<circle cx="114.6" cy="188.9" r="5.33" fill="#eb6834"/>
<circle cx="124.5" cy="214.9" r="5.33" fill="#eb6834"/>
<circle cx="128.5" cy="160.7" r="5.33" fill="#eb6834"/>
<circle cx="131.5" cy="231.4" r="5.33" fill="#eb6834"/>
<circle cx="138.5" cy="151.2" r="5.33" fill="#eb6834"/>
<circle cx="141.5" cy="224.3" r="5.33" fill="#eb6834"/>
<circle cx="145.5" cy="137.1" r="5.33" fill="#eb6834"/>
<circle cx="148.5" cy="186.6" r="5.33" fill="#eb6834"/>
<circle cx="151.5" cy="137.1" r="5.33" fill="#eb6834"/>
<circle cx="155.5" cy="219.6" r="5.33" fill="#eb6834"/>
<circle cx="158.5" cy="205.4" r="5.33" fill="#eb6834"/>
<circle cx="161.5" cy="219.6" r="5.33" fill="#eb6834"/>
<circle cx="165.5" cy="221.9" r="5.33" fill="#eb6834"/>
<circle cx="168.5" cy="210.1" r="5.33" fill="#eb6834"/>
<circle cx="172.4" cy="134.7" r="5.33" fill="#eb6834"/>
<circle cx="175.4" cy="144.2" r="5.33" fill="#eb6834"/>
<circle cx="178.4" cy="134.7" r="5.33" fill="#eb6834"/>
<circle cx="182.4" cy="229.0" r="5.33" fill="#eb6834"/>
<circle cx="185.4" cy="130.0" r="5.33" fill="#eb6834"/>
<circle cx="192.4" cy="243.1" r="5.33" fill="#eb6834"/>
<circle cx="195.4" cy="146.5" r="5.33" fill="#eb6834"/>
<circle cx="199.4" cy="207.8" r="5.33" fill="#eb6834"/>
<circle cx="202.4" cy="146.5" r="5.33" fill="#eb6834"/>
<circle cx="205.4" cy="207.8" r="5.33" fill="#eb6834"/>
<circle cx="209.4" cy="188.9" r="5.33" fill="#eb6834"/>
<circle cx="212.4" cy="130.0" r="5.33" fill="#eb6834"/>
<circle cx="216.4" cy="158.3" r="5.33" fill="#eb6834"/>
<circle cx="219.4" cy="214.9" r="5.33" fill="#eb6834"/>
<circle cx="222.3" cy="158.3" r="5.33" fill="#eb6834"/>
<circle cx="226.3" cy="231.4" r="5.33" fill="#eb6834"/>
<circle cx="229.3" cy="210.1" r="5.33" fill="#eb6834"/>
<circle cx="236.3" cy="224.3" r="5.33" fill="#eb6834"/>
<circle cx="239.3" cy="205.4" r="5.33" fill="#eb6834"/>
<circle cx="243.3" cy="245.5" r="5.33" fill="#eb6834"/>
<circle cx="246.3" cy="137.1" r="5.33" fill="#eb6834"/>
<circle cx="249.3" cy="245.5" r="5.33" fill="#eb6834"/>
<circle cx="253.3" cy="205.4" r="5.33" fill="#eb6834"/>
<circle cx="256.3" cy="224.3" r="5.33" fill="#eb6834"/>
<circle cx="260.3" cy="231.4" r="5.33" fill="#eb6834"/>
<circle cx="263.3" cy="210.1" r="5.33" fill="#eb6834"/>
<circle cx="266.3" cy="231.4" r="5.33" fill="#eb6834"/>
<circle cx="270.2" cy="158.3" r="5.33" fill="#eb6834"/>
<circle cx="273.2" cy="214.9" r="5.33" fill="#eb6834"/>
<circle cx="276.2" cy="158.3" r="5.33" fill="#eb6834"/>
<circle cx="280.2" cy="130.0" r="5.33" fill="#eb6834"/>
<circle cx="283.2" cy="188.9" r="5.33" fill="#eb6834"/>
<circle cx="287.2" cy="207.8" r="5.33" fill="#eb6834"/>
<circle cx="290.2" cy="146.5" r="5.33" fill="#eb6834"/>
<circle cx="293.2" cy="207.8" r="5.33" fill="#eb6834"/>
<circle cx="297.2" cy="146.5" r="5.33" fill="#eb6834"/>
<circle cx="300.2" cy="243.1" r="5.33" fill="#eb6834"/>
<circle cx="304.2" cy="229.0" r="5.33" fill="#eb6834"/>
<circle cx="307.2" cy="130.0" r="5.33" fill="#eb6834"/>
<circle cx="310.2" cy="229.0" r="5.33" fill="#eb6834"/>
<circle cx="314.2" cy="134.7" r="5.33" fill="#eb6834"/>
<circle cx="317.2" cy="144.2" r="5.33" fill="#eb6834"/>
<circle cx="320.1" cy="134.7" r="5.33" fill="#eb6834"/>
<circle cx="324.1" cy="210.1" r="5.33" fill="#eb6834"/>
<circle cx="327.1" cy="221.9" r="5.33" fill="#eb6834"/>
<circle cx="331.1" cy="219.6" r="5.33" fill="#eb6834"/>
<circle cx="334.1" cy="205.4" r="5.33" fill="#eb6834"/>
<circle cx="337.1" cy="219.6" r="5.33" fill="#eb6834"/>
<circle cx="341.1" cy="137.1" r="5.33" fill="#eb6834"/>
<circle cx="344.1" cy="186.6" r="5.33" fill="#eb6834"/>
<circle cx="351.1" cy="224.3" r="5.33" fill="#eb6834"/>
<circle cx="354.1" cy="151.2" r="5.33" fill="#eb6834"/>
<circle cx="358.1" cy="160.7" r="5.33" fill="#eb6834"/>
<circle cx="361.1" cy="123.0" r="5.33" fill="#eb6834"/>
<circle cx="364.1" cy="160.7" r="5.33" fill="#eb6834"/>
<circle cx="368.1" cy="214.9" r="5.33" fill="#eb6834"/>
<circle cx="371.0" cy="179.5" r="5.33" fill="#eb6834"/>
<circle cx="378.0" cy="188.9" r="5.33" fill="#eb6834"/>
<circle cx="381.0" cy="155.9" r="5.33" fill="#eb6834"/>
<circle cx="385.0" cy="177.2" r="5.33" fill="#eb6834"/>
<circle cx="391.0" cy="177.2" r="5.33" fill="#eb6834"/>
<circle cx="395.0" cy="243.1" r="5.33" fill="#eb6834"/>
<circle cx="398.0" cy="123.0" r="5.33" fill="#eb6834"/>
<circle cx="408.0" cy="236.1" r="5.33" fill="#eb6834"/>
<circle cx="412.0" cy="144.2" r="5.33" fill="#eb6834"/>
<circle cx="421.9" cy="221.9" r="5.33" fill="#eb6834"/>
<circle cx="434.9" cy="141.8" r="5.33" fill="#eb6834"/>
<circle cx="448.9" cy="151.2" r="5.33" fill="#eb6834"/>
<circle cx="85.6" cy="160.7" r="5.33" fill="#1baf7a"/>
<circle cx="98.6" cy="179.5" r="5.33" fill="#1baf7a"/>
<circle cx="102.6" cy="155.9" r="5.33" fill="#1baf7a"/>
<circle cx="112.6" cy="177.2" r="5.33" fill="#1baf7a"/>
<circle cx="115.6" cy="179.5" r="5.33" fill="#1baf7a"/>
<circle cx="125.5" cy="123.0" r="5.33" fill="#1baf7a"/>
<circle cx="129.5" cy="236.1" r="5.33" fill="#1baf7a"/>
<circle cx="135.5" cy="236.1" r="5.33" fill="#1baf7a"/>
<circle cx="139.5" cy="144.2" r="5.33" fill="#1baf7a"/>
<circle cx="142.5" cy="186.6" r="5.33" fill="#1baf7a"/>
<circle cx="149.5" cy="221.9" r="5.33" fill="#1baf7a"/>
<circle cx="152.5" cy="141.8" r="5.33" fill="#1baf7a"/>
<circle cx="156.5" cy="141.8" r="5.33" fill="#1baf7a"/>
<circle cx="159.5" cy="221.9" r="5.33" fill="#1baf7a"/>
<circle cx="162.5" cy="141.8" r="5.33" fill="#1baf7a"/>
<circle cx="166.5" cy="186.6" r="5.33" fill="#1baf7a"/>
<circle cx="169.5" cy="144.2" r="5.33" fill="#1baf7a"/>
<circle cx="173.4" cy="236.1" r="5.33" fill="#1baf7a"/>
<circle cx="176.4" cy="151.2" r="5.33" fill="#1baf7a"/>
<circle cx="179.4" cy="236.1" r="5.33" fill="#1baf7a"/>
<circle cx="183.4" cy="123.0" r="5.33" fill="#1baf7a"/>
<circle cx="186.4" cy="243.1" r="5.33" fill="#1baf7a"/>
<circle cx="189.4" cy="123.0" r="5.33" fill="#1baf7a"/>
<circle cx="193.4" cy="179.5" r="5.33" fill="#1baf7a"/>
<circle cx="196.4" cy="177.2" r="5.33" fill="#1baf7a"/>
<circle cx="200.4" cy="155.9" r="5.33" fill="#1baf7a"/>
<circle cx="203.4" cy="188.9" r="5.33" fill="#1baf7a"/>
<circle cx="206.4" cy="155.9" r="5.33" fill="#1baf7a"/>
<circle cx="210.4" cy="179.5" r="5.33" fill="#1baf7a"/>
<circle cx="213.4" cy="214.9" r="5.33" fill="#1baf7a"/>
<circle cx="217.4" cy="160.7" r="5.33" fill="#1baf7a"/>
<circle cx="220.3" cy="123.0" r="5.33" fill="#1baf7a"/>
<circle cx="223.3" cy="160.7" r="5.33" fill="#1baf7a"/>
<circle cx="227.3" cy="151.2" r="5.33" fill="#1baf7a"/>
<circle cx="230.3" cy="224.3" r="5.33" fill="#1baf7a"/>
<circle cx="233.3" cy="151.2" r="5.33" fill="#1baf7a"/>
<circle cx="237.3" cy="186.6" r="5.33" fill="#1baf7a"/>
<circle cx="240.3" cy="137.1" r="5.33" fill="#1baf7a"/>
<circle cx="244.3" cy="219.6" r="5.33" fill="#1baf7a"/>
<circle cx="247.3" cy="141.8" r="5.33" fill="#1baf7a"/>
<circle cx="250.3" cy="219.6" r="5.33" fill="#1baf7a"/>
<circle cx="254.3" cy="221.9" r="5.33" fill="#1baf7a"/>
<circle cx="257.3" cy="210.1" r="5.33" fill="#1baf7a"/>
<circle cx="261.3" cy="134.7" r="5.33" fill="#1baf7a"/>
<circle cx="264.3" cy="144.2" r="5.33" fill="#1baf7a"/>
<circle cx="267.3" cy="134.7" r="5.33" fill="#1baf7a"/>
<circle cx="271.2" cy="229.0" r="5.33" fill="#1baf7a"/>
<circle cx="274.2" cy="130.0" r="5.33" fill="#1baf7a"/>
<circle cx="277.2" cy="229.0" r="5.33" fill="#1baf7a"/>
<circle cx="281.2" cy="243.1" r="5.33" fill="#1baf7a"/>
<circle cx="284.2" cy="146.5" r="5.33" fill="#1baf7a"/>
<circle cx="288.2" cy="207.8" r="5.33" fill="#1baf7a"/>
<circle cx="291.2" cy="177.2" r="5.33" fill="#1baf7a"/>
<circle cx="294.2" cy="207.8" r="5.33" fill="#1baf7a"/>
<circle cx="298.2" cy="188.9" r="5.33" fill="#1baf7a"/>
<circle cx="301.2" cy="130.0" r="5.33" fill="#1baf7a"/>
<circle cx="308.2" cy="214.9" r="5.33" fill="#1baf7a"/>
<circle cx="311.2" cy="158.3" r="5.33" fill="#1baf7a"/>
<circle cx="315.2" cy="231.4" r="5.33" fill="#1baf7a"/>
<circle cx="318.2" cy="210.1" r="5.33" fill="#1baf7a"/>
<circle cx="321.1" cy="231.4" r="5.33" fill="#1baf7a"/>
<circle cx="325.1" cy="224.3" r="5.33" fill="#1baf7a"/>
<circle cx="328.1" cy="205.4" r="5.33" fill="#1baf7a"/>
<circle cx="332.1" cy="245.5" r="5.33" fill="#1baf7a"/>
<circle cx="335.1" cy="137.1" r="5.33" fill="#1baf7a"/>
<circle cx="338.1" cy="245.5" r="5.33" fill="#1baf7a"/>
<circle cx="342.1" cy="205.4" r="5.33" fill="#1baf7a"/>
<circle cx="345.1" cy="224.3" r="5.33" fill="#1baf7a"/>
<circle cx="348.1" cy="205.4" r="5.33" fill="#1baf7a"/>
<circle cx="352.1" cy="210.1" r="5.33" fill="#1baf7a"/>
<circle cx="355.1" cy="231.4" r="5.33" fill="#1baf7a"/>
<circle cx="359.1" cy="158.3" r="5.33" fill="#1baf7a"/>
<circle cx="365.1" cy="158.3" r="5.33" fill="#1baf7a"/>
<circle cx="369.0" cy="130.0" r="5.33" fill="#1baf7a"/>
<circle cx="372.0" cy="188.9" r="5.33" fill="#1baf7a"/>
<circle cx="379.0" cy="146.5" r="5.33" fill="#1baf7a"/>
<circle cx="382.0" cy="207.8" r="5.33" fill="#1baf7a"/>
<circle cx="386.0" cy="146.5" r="5.33" fill="#1baf7a"/>
<circle cx="392.0" cy="146.5" r="5.33" fill="#1baf7a"/>
<circle cx="396.0" cy="130.0" r="5.33" fill="#1baf7a"/>
<circle cx="399.0" cy="229.0" r="5.33" fill="#1baf7a"/>
<circle cx="406.0" cy="158.3" r="5.33" fill="#1baf7a"/>
<circle cx="409.0" cy="134.7" r="5.33" fill="#1baf7a"/>
<circle cx="422.9" cy="205.4" r="5.33" fill="#1baf7a"/>
<circle cx="435.9" cy="137.1" r="5.33" fill="#1baf7a"/>
<circle cx="72.6" cy="224.3" r="5.33" fill="#eda100"/>
<circle cx="99.6" cy="188.9" r="5.33" fill="#eda100"/>
<circle cx="116.6" cy="243.1" r="5.33" fill="#eda100"/>
<circle cx="126.5" cy="229.0" r="5.33" fill="#eda100"/>
<circle cx="136.5" cy="134.7" r="5.33" fill="#eda100"/>
<circle cx="143.5" cy="221.9" r="5.33" fill="#eda100"/>
<circle cx="153.5" cy="219.6" r="5.33" fill="#eda100"/>
<circle cx="160.5" cy="186.6" r="5.33" fill="#eda100"/>
<circle cx="163.5" cy="137.1" r="5.33" fill="#eda100"/>
<circle cx="170.4" cy="151.2" r="5.33" fill="#eda100"/>
<circle cx="180.4" cy="160.7" r="5.33" fill="#eda100"/>
<circle cx="187.4" cy="179.5" r="5.33" fill="#eda100"/>
<circle cx="190.4" cy="214.9" r="5.33" fill="#eda100"/>
<circle cx="197.4" cy="155.9" r="5.33" fill="#eda100"/>
<circle cx="207.4" cy="177.2" r="5.33" fill="#eda100"/>
<circle cx="214.4" cy="123.0" r="5.33" fill="#eda100"/>
<circle cx="224.3" cy="236.1" r="5.33" fill="#eda100"/>
<circle cx="231.3" cy="186.6" r="5.33" fill="#eda100"/>
<circle cx="234.3" cy="144.2" r="5.33" fill="#eda100"/>
<circle cx="241.3" cy="141.8" r="5.33" fill="#eda100"/>
<circle cx="251.3" cy="141.8" r="5.33" fill="#eda100"/>
<circle cx="258.3" cy="144.2" r="5.33" fill="#eda100"/>
<circle cx="268.3" cy="236.1" r="5.33" fill="#eda100"/>
<circle cx="275.2" cy="243.1" r="5.33" fill="#eda100"/>
<circle cx="278.2" cy="123.0" r="5.33" fill="#eda100"/>
<circle cx="285.2" cy="177.2" r="5.33" fill="#eda100"/>
<circle cx="295.2" cy="155.9" r="5.33" fill="#eda100"/>
<circle cx="302.2" cy="214.9" r="5.33" fill="#eda100"/>
<circle cx="305.2" cy="179.5" r="5.33" fill="#eda100"/>
<circle cx="312.2" cy="160.7" r="5.33" fill="#eda100"/>
<circle cx="322.1" cy="151.2" r="5.33" fill="#eda100"/>
<circle cx="329.1" cy="137.1" r="5.33" fill="#eda100"/>
<circle cx="339.1" cy="219.6" r="5.33" fill="#eda100"/>
<circle cx="346.1" cy="210.1" r="5.33" fill="#eda100"/>
<circle cx="349.1" cy="221.9" r="5.33" fill="#eda100"/>
<circle cx="356.1" cy="134.7" r="5.33" fill="#eda100"/>
<circle cx="366.1" cy="229.0" r="5.33" fill="#eda100"/>
<circle cx="373.0" cy="146.5" r="5.33" fill="#eda100"/>
<circle cx="383.0" cy="207.8" r="5.33" fill="#eda100"/>
<circle cx="393.0" cy="188.9" r="5.33" fill="#eda100"/>
<circle cx="410.0" cy="231.4" r="5.33" fill="#eda100"/>
<circle cx="419.9" cy="224.3" r="5.33" fill="#eda100"/>
<circle cx="436.9" cy="205.4" r="5.33" fill="#eda100"/>
<rect x="288.64" y="78.05" width="15.87" height="9.26" fill="#2a78d6" fill-opacity="1.00"/>
<text x="309.8" y="87.3" font-size="13.2" font-weight="400" text-anchor="start" fill="#1f2430">p</text>
<rect x="332.67" y="78.05" width="15.87" height="9.26" fill="#eb6834" fill-opacity="1.00"/>
<text x="353.8" y="87.3" font-size="13.2" font-weight="400" text-anchor="start" fill="#1f2430">q</text>
<rect x="376.70" y="78.05" width="15.87" height="9.26" fill="#1baf7a" fill-opacity="1.00"/>
<text x="397.9" y="87.3" font-size="13.2" font-weight="400" text-anchor="start" fill="#1f2430">r</text>
<rect x="420.73" y="78.05" width="15.87" height="9.26" fill="#eda100" fill-opacity="1.00"/>
<text x="441.9" y="87.3" font-size="13.2" font-weight="400" text-anchor="start" fill="#1f2430">s</text>
</svg>
